<svg xmlns="http://www.w3.org/2000/svg" width="32.768" height="26.896" viewBox="0 0 32.768 26.896">
  <path id="Path_70" data-name="Path 70" d="M23.774,14.573l-4.555,4.673a3.248,3.248,0,0,0-4.112,3.244,3.6,3.6,0,0,0,.115.857l-1.278,1.311a1.712,1.712,0,0,0,0,2.387,1.609,1.609,0,0,0,2.326,0l1.278-1.311a3.248,3.248,0,0,0,4.112-3.244,3.6,3.6,0,0,0-.115-.857L26.1,16.959a1.719,1.719,0,0,0,0-2.387,1.616,1.616,0,0,0-2.326,0ZM18.384,4A16.6,16.6,0,0,0,2,20.809a16.966,16.966,0,0,0,2.769,9.346,1.615,1.615,0,0,0,2.277.454,1.71,1.71,0,0,0,.442-2.336A13.7,13.7,0,0,1,9.74,10.688a12.859,12.859,0,0,1,17.287,0,13.7,13.7,0,0,1,2.252,17.584,1.716,1.716,0,0,0-.251,1.262,1.684,1.684,0,0,0,.694,1.074,1.609,1.609,0,0,0,.917.286,1.627,1.627,0,0,0,1.36-.74,16.966,16.966,0,0,0,2.769-9.346A16.6,16.6,0,0,0,18.384,4Z" transform="translate(-2 -4)"/>
</svg>
