<svg xmlns="http://www.w3.org/2000/svg" width="37" height="37" viewBox="0 0 37 37">
  <g id="Group_1954" data-name="Group 1954" transform="translate(-256 -1334.344)">
    <g id="Group_1956" data-name="Group 1956" transform="translate(3 -3)">
      <g id="Group_1955" data-name="Group 1955">
        <circle id="Ellipse_313" data-name="Ellipse 313" cx="18.5" cy="18.5" r="18.5" transform="translate(253 1337.344)" fill="#f5f5de"/>
        <path id="Path_2436" data-name="Path 2436" d="M14.049,2A12.049,12.049,0,1,0,26.1,14.049,12.084,12.084,0,0,0,14.049,2Zm5.663,13.254a1.9,1.9,0,0,1-.843.843l-6.024,3.494a2.336,2.336,0,0,1-3.253-.843,2.036,2.036,0,0,1-.361-1.2V10.555a2.417,2.417,0,0,1,2.41-2.41,2.036,2.036,0,0,1,1.2.361L18.868,12A2.244,2.244,0,0,1,19.712,15.254Z" transform="translate(257 1341.344)" fill="#335f32"/>
      </g>
    </g>
  </g>
</svg>
